<svg xmlns="http://www.w3.org/2000/svg" width="168" height="45" viewBox="0 0 168 45" fill="none"><path d="M40.3517 32.0281C36.5893 37.4922 30.2902 41.0743 23.1545 41.0743C11.631 41.0743 2.28939 31.7327 2.28939 20.2092C2.28939 10.4848 8.94178 2.31423 17.944 0C11.4918 3.24916 7.06582 9.93228 7.06582 17.6492C7.06582 28.556 15.9075 37.3978 26.8145 37.3978C32.0537 37.3978 36.8166 35.3575 40.3517 32.0281Z" fill="#1E4288"></path><path d="M22.4131 42.5571C28.9312 42.5571 34.7747 39.6704 38.7353 35.108C35.0391 41.0469 28.4524 45 20.9422 45C9.3762 45 0 35.6238 0 24.0577C0 21.6944 0.391339 19.4225 1.11302 17.3034C0.911555 18.489 0.80657 19.7075 0.80657 20.9506C0.80657 32.8835 10.4802 42.5571 22.4131 42.5571Z" fill="#888A89"></path><path d="M31.2728 10.1181C28.3588 5.0709 17.9672 11.1416 17.9672 11.1416C17.9672 11.1416 26.7707 8.93697 26.0657 11.5681C25.7436 12.7701 21.9548 13.9871 20.3553 13.9871C17.967 13.9871 16.8608 10.2387 12.679 11.5681C5.07012 13.9871 14.2306 31.9736 17.967 30.9724C20.0114 30.4246 18.48 25.7695 22.7447 25.7695C24.1104 25.7695 25.7549 26.5029 27.3505 29.2665C28.946 32.0301 31.2728 22.3929 29.1843 18.7754C27.729 16.2547 33.1122 13.304 31.2728 10.1181Z" fill="#888A89"></path><path d="M23.4253 21.7368C25.1684 18.7176 31.3846 22.3491 31.3846 22.3491C31.3846 22.3491 26.1184 21.0303 26.5401 22.6042C26.7328 23.3232 28.9992 24.0512 29.9561 24.0512C31.3847 24.0512 32.0465 21.8089 34.548 22.6042C39.0995 24.0512 33.6198 34.8106 31.3847 34.2117C30.1618 33.884 31.0778 31.0993 28.5268 31.0993C27.7098 31.0993 26.7261 31.5381 25.7716 33.1912C24.8172 34.8444 23.4253 29.0795 24.6746 26.9155C25.5452 25.4077 22.325 23.6426 23.4253 21.7368Z" fill="#1E4288"></path><path d="M51.0744 16.019C51.1042 16.2273 51.0298 16.3314 50.8512 16.3314C50.7173 16.3314 50.6355 16.2421 50.6057 16.0636C50.2486 15.3048 49.646 14.7171 48.798 14.3005C48.0391 13.9434 47.1985 13.7648 46.276 13.7648C44.9964 13.7648 44.3567 13.8615 44.3567 14.055V19.5006H45.9859C46.4918 19.5006 46.886 19.2923 47.1687 18.8757C47.3473 18.6376 47.5035 18.2582 47.6374 17.7374C47.7564 17.3208 47.8532 17.1125 47.9276 17.1125C48.0615 17.1125 48.1507 17.2911 48.1954 17.6482C48.24 17.9011 48.2549 18.2508 48.24 18.6971C48.2102 19.322 48.1954 19.5601 48.1954 19.4113C48.1954 19.7535 48.2102 20.2668 48.24 20.9512C48.2698 21.6357 48.2846 22.1415 48.2846 22.4689C48.2846 22.7367 48.1954 22.8706 48.0168 22.8706C47.8978 22.8706 47.7862 22.6474 47.6821 22.2011C47.5481 21.591 47.4217 21.167 47.3026 20.9289C47.0646 20.4826 46.7075 20.2594 46.2314 20.2594H44.379V26.2629C44.379 26.62 44.5501 26.8506 44.8923 26.9548C45.2048 26.9994 45.5246 27.0515 45.852 27.111C46.1942 27.1557 46.3653 27.297 46.3653 27.5351C46.3653 27.7285 46.2537 27.8252 46.0305 27.8252C45.7181 27.8252 45.2568 27.8103 44.6468 27.7806C44.0517 27.7657 43.6053 27.7582 43.3077 27.7582C42.906 27.7582 42.3034 27.7657 41.5 27.7806C40.6965 27.8103 40.0939 27.8252 39.6922 27.8252C39.469 27.8252 39.3574 27.7285 39.3574 27.5351C39.3574 27.297 39.5211 27.1557 39.8484 27.111C40.1758 27.0515 40.5031 26.9994 40.8304 26.9548C41.1726 26.8506 41.3437 26.62 41.3437 26.2629V14.5683C41.3437 14.2112 41.1726 13.9806 40.8304 13.8764C40.518 13.8318 40.1906 13.7871 39.8484 13.7425C39.5211 13.683 39.3574 13.5342 39.3574 13.2962C39.3574 13.1027 39.4616 13.006 39.6699 13.006C40.0121 13.006 40.5254 13.0209 41.2098 13.0507C41.8942 13.0655 42.4076 13.073 42.7498 13.073H45.2494C45.8445 13.073 46.7224 13.0655 47.8829 13.0507C49.0583 13.0358 49.9362 13.0283 50.5164 13.0283C50.8884 14.8287 51.0744 15.8255 51.0744 16.019Z" fill="#1E4288"></path><path d="M61.0089 26.4638C60.7708 26.8804 60.3989 27.2524 59.893 27.5797C59.3871 27.8922 58.8961 28.0484 58.42 28.0484C57.438 28.0484 56.8801 27.5425 56.7461 26.5308C55.4963 27.5425 54.3581 28.0484 53.3315 28.0484C52.7066 28.0484 52.1933 27.8773 51.7915 27.5351C51.3452 27.178 51.122 26.6944 51.122 26.0844C51.122 25.0875 51.8287 24.2022 53.2422 23.4285C54.2837 22.878 55.4517 22.4837 56.7461 22.2457V20.862C56.7461 20.3412 56.5825 19.9246 56.2551 19.6122C55.9427 19.2997 55.5261 19.1435 55.0053 19.1435C54.7078 19.1435 54.373 19.2253 54.001 19.389C53.5398 19.5824 53.3092 19.8056 53.3092 20.0585C53.3092 20.1627 53.3761 20.3263 53.51 20.5495C53.6439 20.7578 53.7109 20.9364 53.7109 21.0851C53.7109 21.3827 53.577 21.6282 53.3092 21.8216C53.0414 22.0151 52.7512 22.1118 52.4388 22.1118C52.1263 22.1118 51.8585 22.0151 51.6353 21.8216C51.4121 21.6133 51.3005 21.3604 51.3005 21.0628C51.3005 20.3784 52.0445 19.6866 53.5323 18.9873C54.8714 18.3772 55.9501 18.0722 56.7685 18.0722C57.6314 18.0722 58.2787 18.3995 58.7101 19.0542C59.0821 19.6047 59.2681 20.3338 59.2681 21.2414V25.9058C59.2681 26.3671 59.4243 26.6051 59.7368 26.62C59.9451 26.62 60.1757 26.5233 60.4286 26.3299C60.6964 26.1365 60.8378 26.0398 60.8527 26.0398C60.9419 26.0398 61.0015 26.0918 61.0312 26.196C61.061 26.2853 61.0535 26.3745 61.0089 26.4638ZM56.7461 25.8166V22.8929C56.0766 23.0268 55.4294 23.3095 54.8045 23.741C54.0308 24.2618 53.6439 24.8048 53.6439 25.3702C53.6439 25.7273 53.7406 26.0323 53.9341 26.2853C54.1424 26.5828 54.4102 26.7316 54.7375 26.7316C55.1392 26.7316 55.8088 26.4266 56.7461 25.8166Z" fill="#1E4288"></path><path d="M79.0891 27.3788C79.0891 27.6764 78.8734 27.8252 78.4419 27.8252C78.189 27.8252 77.8096 27.8103 77.3037 27.7806C76.7978 27.7657 76.4184 27.7582 76.1655 27.7582C75.972 27.7582 75.6819 27.7657 75.2951 27.7806C74.9082 27.8103 74.6181 27.8252 74.4247 27.8252C74.0229 27.8252 73.8221 27.6913 73.8221 27.4235C73.8221 27.2301 73.9411 27.1185 74.1792 27.0887C74.566 27.0441 74.7817 27.0143 74.8264 26.9994C75.0644 26.8804 75.1835 26.6349 75.1835 26.2629V22.1787C75.1835 20.423 74.6255 19.5452 73.5096 19.5452C72.9442 19.5452 72.2003 19.8279 71.2778 20.3933C71.3373 20.6462 71.3671 20.9438 71.3671 21.286C71.3671 21.8365 71.3671 22.6623 71.3671 23.7633C71.3522 24.8643 71.3448 25.6901 71.3448 26.2406C71.3448 26.6423 71.4638 26.8953 71.7019 26.9994C71.7614 27.0292 71.9845 27.0589 72.3714 27.0887C72.6095 27.1036 72.7285 27.2003 72.7285 27.3788C72.7285 27.6764 72.5127 27.8252 72.0813 27.8252C71.8283 27.8252 71.4489 27.8103 70.943 27.7806C70.4372 27.7657 70.0578 27.7582 69.8048 27.7582C69.6114 27.7582 69.3213 27.7657 68.9344 27.7806C68.5476 27.8103 68.2574 27.8252 68.064 27.8252C67.6623 27.8252 67.4614 27.6913 67.4614 27.4235C67.4614 27.2301 67.5805 27.1185 67.8185 27.0887C68.2054 27.0441 68.4211 27.0143 68.4657 26.9994C68.7038 26.8804 68.8228 26.6349 68.8228 26.2629V22.1787C68.8228 20.423 68.2798 19.5452 67.1936 19.5452C66.6431 19.5452 65.9066 19.8577 64.9841 20.4826V26.2406C64.9841 26.6423 65.1032 26.8953 65.3412 26.9994C65.4007 27.0292 65.6239 27.0515 66.0108 27.0664C66.2488 27.0813 66.3678 27.1854 66.3678 27.3788C66.3678 27.6764 66.1521 27.8252 65.7206 27.8252C65.4677 27.8252 65.0883 27.8103 64.5824 27.7806C64.0765 27.7657 63.6971 27.7582 63.4442 27.7582C63.2508 27.7582 62.9606 27.7657 62.5738 27.7806C62.1869 27.8103 61.8968 27.8252 61.7034 27.8252C61.3016 27.8252 61.1008 27.6913 61.1008 27.4235C61.1008 27.2301 61.2198 27.1259 61.4579 27.111C61.8447 27.0664 62.0605 27.0292 62.1051 26.9994C62.3432 26.8953 62.4622 26.6498 62.4622 26.2629V21.1075C62.4622 20.5718 62.425 20.2371 62.3506 20.1032C62.2316 19.9395 61.934 19.8279 61.4579 19.7684C61.1008 19.7237 60.9222 19.6196 60.9222 19.4559C60.9222 19.4262 60.9446 19.3741 60.9892 19.2997C61.0338 19.2104 61.4281 19.0542 62.172 18.831C63.035 18.5632 63.4814 18.4219 63.5111 18.407C64.4187 18.035 64.8948 17.849 64.9395 17.849C65.0288 17.849 65.0734 17.9532 65.0734 18.1615C65.0734 18.2954 65.066 18.4963 65.0511 18.7641C65.0362 19.0319 65.0288 19.2328 65.0288 19.3667V19.7014C66.353 18.6897 67.4912 18.1838 68.4434 18.1838C69.7825 18.1838 70.6678 18.7194 71.0993 19.7907C72.5127 18.7194 73.7551 18.1838 74.8264 18.1838C75.7637 18.1838 76.4779 18.4665 76.9689 19.0319C77.4748 19.5824 77.7277 20.3338 77.7277 21.286C77.7277 21.8365 77.7277 22.6623 77.7277 23.7633C77.7129 24.8643 77.7054 25.6901 77.7054 26.2406C77.7054 26.6423 77.8244 26.8953 78.0625 26.9994C78.122 27.0292 78.3452 27.0589 78.732 27.0887C78.9701 27.1036 79.0891 27.2003 79.0891 27.3788Z" fill="#1E4288"></path><path d="M83.503 13.9211C83.503 14.3228 83.3543 14.6724 83.0567 14.97C82.774 15.2527 82.4318 15.394 82.0301 15.394C81.6283 15.394 81.2787 15.2527 80.9811 14.97C80.6984 14.6724 80.5571 14.3228 80.5571 13.9211C80.5571 13.5193 80.6984 13.1771 80.9811 12.8944C81.2787 12.5969 81.6283 12.4481 82.0301 12.4481C82.4318 12.4481 82.774 12.5969 83.0567 12.8944C83.3543 13.1771 83.503 13.5193 83.503 13.9211ZM85.0653 27.4012C85.0653 27.6839 84.8719 27.8252 84.485 27.8252C84.2023 27.8252 83.7783 27.8103 83.2129 27.7806C82.6475 27.7657 82.216 27.7582 81.9185 27.7582C81.7102 27.7582 81.3903 27.7657 80.9588 27.7806C80.5273 27.8103 80.2 27.8252 79.9768 27.8252C79.5751 27.8252 79.3742 27.6839 79.3742 27.4012C79.3742 27.2226 79.6346 27.0961 80.1553 27.0218C80.691 26.9474 80.9588 26.6944 80.9588 26.2629V21.1298C80.9588 20.5942 80.9216 20.2594 80.8472 20.1255C80.7282 19.9469 80.4306 19.8279 79.9545 19.7684C79.5974 19.7237 79.4188 19.6196 79.4188 19.4559C79.4188 19.4262 79.4412 19.3741 79.4858 19.2997C79.5304 19.2104 79.9247 19.0542 80.6687 18.831C81.5614 18.5483 82.0077 18.407 82.0077 18.407C82.9749 18.0201 83.451 17.8267 83.4361 17.8267C83.5254 17.8267 83.57 17.9532 83.57 18.2061C83.57 19.0988 83.5551 20.4379 83.5254 22.2234C83.4956 24.0088 83.4807 25.3479 83.4807 26.2406C83.4807 26.6423 83.6146 26.8953 83.8825 26.9994C83.9568 27.0143 84.2172 27.0441 84.6636 27.0887C84.9314 27.1036 85.0653 27.2077 85.0653 27.4012Z" fill="#1E4288"></path><path d="M91.0214 27.4012C91.0214 27.6839 90.828 27.8252 90.4412 27.8252C90.1585 27.8252 89.7344 27.8103 89.169 27.7806C88.6037 27.7657 88.1722 27.7582 87.8746 27.7582C87.6663 27.7582 87.3464 27.7657 86.9149 27.7806C86.4834 27.8103 86.1561 27.8252 85.9329 27.8252C85.5312 27.8252 85.3303 27.6839 85.3303 27.4012C85.3303 27.2226 85.5907 27.0961 86.1115 27.0218C86.6471 26.9474 86.9149 26.6944 86.9149 26.2629V15.3271C86.9149 14.7915 86.8777 14.4567 86.8033 14.3228C86.6843 14.1442 86.3867 14.0252 85.9106 13.9657C85.5535 13.9211 85.375 13.8169 85.375 13.6532C85.375 13.6235 85.3973 13.564 85.4419 13.4747C85.4717 13.4301 85.8585 13.3185 86.6025 13.1399C87.4208 12.9614 87.8746 12.8572 87.9639 12.8275C88.931 12.4406 89.4071 12.2472 89.3922 12.2472C89.4815 12.2472 89.5261 12.3588 89.5261 12.582C89.5261 13.073 89.5113 13.8095 89.4815 14.7915C89.4517 15.7735 89.4369 16.5099 89.4369 17.0009V26.2406C89.4369 26.6126 89.5708 26.8581 89.8386 26.9771C89.8981 26.992 90.1585 27.0218 90.6197 27.0664C90.8875 27.0961 91.0214 27.2077 91.0214 27.4012Z" fill="#1E4288"></path><path d="M101.91 18.6525C101.91 18.8608 101.746 18.9873 101.419 19.0319C101.017 19.0765 100.727 19.2997 100.548 19.7014C99.6409 22.0076 98.7258 24.3138 97.8033 26.62C96.3452 30.1612 95.1921 32.1772 94.344 32.6682C94.0167 32.8616 93.6447 32.9584 93.2281 32.9584C92.3503 32.9584 91.9114 32.5864 91.9114 31.8425C91.9114 31.53 92.0155 31.2547 92.2238 31.0167C92.4321 30.7935 92.6925 30.6819 93.005 30.6819C93.2728 30.6819 93.548 30.7786 93.8307 30.972C94.1134 31.1803 94.3292 31.2845 94.478 31.2845C94.8053 31.2845 95.1921 30.8084 95.6385 29.8561C95.8914 29.2461 96.1369 28.6435 96.375 28.0484L92.5363 19.7237C92.3577 19.3369 92.0676 19.1063 91.6659 19.0319C91.3237 18.9724 91.1526 18.8533 91.1526 18.6748C91.1526 18.4516 91.2493 18.34 91.4427 18.34C91.7105 18.34 92.1048 18.3549 92.6256 18.3847C93.1463 18.3995 93.5332 18.407 93.7861 18.407C94.039 18.407 94.411 18.3995 94.902 18.3847C95.393 18.3549 95.7575 18.34 95.9956 18.34C96.3229 18.34 96.4866 18.4591 96.4866 18.6971C96.4866 18.8905 96.2336 19.0096 95.7278 19.0542C95.2219 19.0988 94.9689 19.2253 94.9689 19.4336C94.9689 19.5824 95.1252 19.999 95.4376 20.6834L97.5578 25.3702L99.0978 21.3083C99.5144 20.2073 99.7227 19.6122 99.7227 19.5229C99.7227 19.2402 99.4921 19.084 99.0308 19.0542C98.5845 19.0096 98.3613 18.8831 98.3613 18.6748C98.3613 18.4516 98.5175 18.34 98.83 18.34C98.9788 18.34 99.2019 18.3549 99.4995 18.3847C99.7971 18.3995 100.02 18.407 100.169 18.407C100.333 18.407 100.578 18.3995 100.906 18.3847C101.233 18.3549 101.478 18.34 101.642 18.34C101.821 18.34 101.91 18.4442 101.91 18.6525Z" fill="#1E4288"></path><path d="M122.331 20.1924C122.331 22.573 121.49 24.4626 119.809 25.8612C118.232 27.1557 116.223 27.8029 113.783 27.8029C113.352 27.8029 112.712 27.7954 111.864 27.7806C111.031 27.7657 110.406 27.7582 109.989 27.7582C109.632 27.7582 109.096 27.7657 108.382 27.7806C107.668 27.8103 107.132 27.8252 106.775 27.8252C106.552 27.8252 106.44 27.7285 106.44 27.5351C106.44 27.297 106.604 27.1557 106.931 27.111C107.259 27.0515 107.586 26.9994 107.913 26.9548C108.256 26.8506 108.427 26.62 108.427 26.2629V14.5683C108.427 14.2112 108.256 13.9806 107.913 13.8764C107.601 13.8318 107.274 13.7871 106.931 13.7425C106.604 13.683 106.44 13.5342 106.44 13.2962C106.44 13.1027 106.545 13.006 106.753 13.006C107.11 13.006 107.646 13.0209 108.36 13.0507C109.074 13.0655 109.602 13.073 109.944 13.073C110.376 13.073 111.023 13.0358 111.886 12.9614C112.749 12.887 113.396 12.8498 113.828 12.8498C116.164 12.8498 118.128 13.4747 119.72 14.7245C121.46 16.0933 122.331 17.916 122.331 20.1924ZM118.827 20.1255C118.827 18.1764 118.381 16.6364 117.488 15.5056C116.491 14.2707 115.04 13.6532 113.136 13.6532C112.005 13.6532 111.44 13.869 111.44 14.3005V25.9728C111.44 26.3001 111.618 26.5605 111.975 26.7539C112.273 26.9027 112.6 26.9771 112.957 26.9771C114.817 26.9771 116.283 26.2853 117.354 24.9015C118.336 23.6368 118.827 22.0448 118.827 20.1255Z" fill="#1E4288"></path><path d="M132.806 25.3925C132.464 26.2109 131.876 26.8581 131.043 27.3342C130.225 27.8103 129.347 28.0484 128.41 28.0484C126.981 28.0484 125.836 27.5797 124.973 26.6423C124.11 25.705 123.678 24.5221 123.678 23.0938C123.678 21.6357 124.139 20.4379 125.062 19.5006C125.984 18.5483 127.175 18.0722 128.633 18.0722C129.719 18.0722 130.671 18.4293 131.489 19.1435C132.367 19.8874 132.806 20.795 132.806 21.8663C132.806 22.1341 131.869 22.268 129.994 22.268H126.289C126.289 23.4285 126.55 24.3882 127.07 25.147C127.681 26.0398 128.529 26.4861 129.615 26.4861C130.507 26.4861 131.415 26.01 132.338 25.0578L132.806 25.3925ZM130.039 20.9736C130.039 20.3635 129.905 19.8577 129.637 19.4559C129.31 18.9798 128.856 18.7418 128.276 18.7418C127.145 18.7418 126.498 19.6196 126.334 21.3753H129.258C129.778 21.3753 130.039 21.2414 130.039 20.9736Z" fill="#1E4288"></path><path d="M144.738 27.3788C144.738 27.6764 144.522 27.8252 144.091 27.8252C143.838 27.8252 143.459 27.8103 142.953 27.7806C142.447 27.7657 142.067 27.7582 141.815 27.7582C141.621 27.7582 141.331 27.7657 140.944 27.7806C140.557 27.8103 140.267 27.8252 140.074 27.8252C139.672 27.8252 139.471 27.6913 139.471 27.4235C139.471 27.2301 139.59 27.1185 139.828 27.0887C140.215 27.0441 140.431 27.0143 140.475 26.9994C140.714 26.8804 140.833 26.6349 140.833 26.2629V22.1787C140.833 20.423 140.289 19.5452 139.203 19.5452C138.653 19.5452 137.916 19.8577 136.994 20.4826V26.2406C136.994 26.7763 137.224 27.0441 137.686 27.0441C138.147 27.0441 138.378 27.1557 138.378 27.3788C138.378 27.6764 138.162 27.8252 137.73 27.8252C137.477 27.8252 137.098 27.8103 136.592 27.7806C136.086 27.7657 135.707 27.7582 135.454 27.7582C135.26 27.7582 134.97 27.7657 134.583 27.7806C134.197 27.8103 133.907 27.8252 133.713 27.8252C133.311 27.8252 133.11 27.6913 133.11 27.4235C133.11 27.2301 133.23 27.1259 133.468 27.111C133.854 27.0664 134.07 27.0292 134.115 26.9994C134.353 26.8953 134.472 26.6498 134.472 26.2629V21.1298C134.472 20.5942 134.435 20.2594 134.36 20.1255C134.241 19.9469 133.944 19.8279 133.468 19.7684C133.11 19.7237 132.932 19.6196 132.932 19.4559C132.932 19.4262 132.954 19.3741 132.999 19.2997C133.044 19.2104 133.438 19.0542 134.182 18.831C135.045 18.5632 135.491 18.4219 135.521 18.407C136.443 18.0201 136.919 17.8267 136.949 17.8267C137.038 17.8267 137.083 17.9383 137.083 18.1615C137.083 18.2954 137.076 18.4963 137.061 18.7641C137.046 19.0319 137.038 19.2328 137.038 19.3667V19.7014C138.363 18.6897 139.508 18.1838 140.475 18.1838C141.413 18.1838 142.127 18.4665 142.618 19.0319C143.124 19.5824 143.377 20.3338 143.377 21.286C143.377 21.8365 143.377 22.6623 143.377 23.7633C143.362 24.8643 143.354 25.6827 143.354 26.2183C143.354 26.62 143.474 26.873 143.712 26.9771C143.771 27.0069 143.994 27.0366 144.381 27.0664C144.619 27.0813 144.738 27.1854 144.738 27.3788Z" fill="#1E4288"></path><path d="M151.785 26.687C151.785 27.1036 151.361 27.4458 150.513 27.7136C149.844 27.9368 149.248 28.0484 148.728 28.0484C147.909 28.0484 147.284 27.8178 146.853 27.3565C146.422 26.8804 146.206 26.2332 146.206 25.4149V19.4559C145.432 19.4559 145.157 19.4634 145.38 19.4783C144.934 19.4485 144.71 19.3518 144.71 19.1881C144.71 19.0691 144.8 18.9649 144.978 18.8757C146.064 18.1615 146.66 17.7672 146.764 17.6928C147.359 17.2613 147.88 16.7703 148.326 16.2198C148.43 16.071 148.512 15.9966 148.571 15.9966C148.676 15.9966 148.728 16.1826 148.728 16.5546V18.407C149.65 18.3772 150.35 18.3623 150.826 18.3623C151.242 18.3623 151.451 18.5706 151.451 18.9873C151.451 19.2848 151.309 19.4336 151.026 19.4336H148.75V25.1247C148.75 26.2704 149.204 26.8432 150.111 26.8432C150.394 26.8432 150.714 26.7763 151.071 26.6423C151.428 26.5084 151.607 26.4415 151.607 26.4415C151.726 26.4415 151.785 26.5233 151.785 26.687Z" fill="#1E4288"></path><path d="M162.046 26.4638C161.808 26.8804 161.436 27.2524 160.93 27.5797C160.424 27.8922 159.933 28.0484 159.457 28.0484C158.475 28.0484 157.917 27.5425 157.783 26.5308C156.533 27.5425 155.395 28.0484 154.369 28.0484C153.744 28.0484 153.23 27.8773 152.829 27.5351C152.382 27.178 152.159 26.6944 152.159 26.0844C152.159 25.0875 152.866 24.2022 154.279 23.4285C155.321 22.878 156.489 22.4837 157.783 22.2457V20.862C157.783 20.3412 157.62 19.9246 157.292 19.6122C156.98 19.2997 156.563 19.1435 156.042 19.1435C155.745 19.1435 155.41 19.2253 155.038 19.389C154.577 19.5824 154.346 19.8056 154.346 20.0585C154.346 20.1627 154.413 20.3263 154.547 20.5495C154.681 20.7578 154.748 20.9364 154.748 21.0851C154.748 21.3827 154.614 21.6282 154.346 21.8216C154.078 22.0151 153.788 22.1118 153.476 22.1118C153.163 22.1118 152.896 22.0151 152.672 21.8216C152.449 21.6133 152.338 21.3604 152.338 21.0628C152.338 20.3784 153.082 19.6866 154.569 18.9873C155.909 18.3772 156.987 18.0722 157.806 18.0722C158.669 18.0722 159.316 18.3995 159.747 19.0542C160.119 19.6047 160.305 20.3338 160.305 21.2414V25.9058C160.305 26.3671 160.461 26.6051 160.774 26.62C160.982 26.62 161.213 26.5233 161.466 26.3299C161.734 26.1365 161.875 26.0398 161.89 26.0398C161.979 26.0398 162.039 26.0918 162.068 26.196C162.098 26.2853 162.091 26.3745 162.046 26.4638ZM157.783 25.8166V22.8929C157.114 23.0268 156.467 23.3095 155.842 23.741C155.068 24.2618 154.681 24.8048 154.681 25.3702C154.681 25.7273 154.778 26.0323 154.971 26.2853C155.18 26.5828 155.447 26.7316 155.775 26.7316C156.176 26.7316 156.846 26.4266 157.783 25.8166Z" fill="#1E4288"></path><path d="M167.963 27.4012C167.963 27.6839 167.769 27.8252 167.383 27.8252C167.1 27.8252 166.676 27.8103 166.111 27.7806C165.545 27.7657 165.114 27.7582 164.816 27.7582C164.608 27.7582 164.288 27.7657 163.856 27.7806C163.425 27.8103 163.098 27.8252 162.874 27.8252C162.473 27.8252 162.272 27.6839 162.272 27.4012C162.272 27.2226 162.532 27.0961 163.053 27.0218C163.589 26.9474 163.856 26.6944 163.856 26.2629V15.3271C163.856 14.7915 163.819 14.4567 163.745 14.3228C163.626 14.1442 163.328 14.0252 162.852 13.9657C162.495 13.9211 162.316 13.8169 162.316 13.6532C162.316 13.6235 162.339 13.564 162.383 13.4747C162.413 13.4301 162.8 13.3185 163.544 13.1399C164.362 12.9614 164.816 12.8572 164.905 12.8275C165.872 12.4406 166.349 12.2472 166.334 12.2472C166.423 12.2472 166.468 12.3588 166.468 12.582C166.468 13.073 166.453 13.8095 166.423 14.7915C166.393 15.7735 166.378 16.5099 166.378 17.0009V26.2406C166.378 26.6126 166.512 26.8581 166.78 26.9771C166.84 26.992 167.1 27.0218 167.561 27.0664C167.829 27.0961 167.963 27.2077 167.963 27.4012Z" fill="#1E4288"></path><path d="M65.853 34.0003C65.853 34.61 65.6084 35.0924 65.1193 35.4475C64.6771 35.7624 64.1377 35.9199 63.5012 35.9199C63.0925 35.9199 62.7407 35.8663 62.4459 35.7591V38.0305C62.4459 38.2047 62.5229 38.3152 62.677 38.3621C62.8178 38.3755 62.9618 38.3923 63.1092 38.4124C63.2633 38.4325 63.3404 38.4995 63.3404 38.6134C63.3404 38.7005 63.2935 38.744 63.1997 38.744C63.0389 38.744 62.7977 38.7373 62.476 38.7239C62.1544 38.7172 61.9166 38.7139 61.7625 38.7139C61.6017 38.7139 61.3605 38.7172 61.0388 38.7239C60.7172 38.7373 60.476 38.744 60.3152 38.744C60.2147 38.744 60.1645 38.7005 60.1645 38.6134C60.1645 38.5062 60.2382 38.4425 60.3856 38.4224C60.533 38.3956 60.6804 38.3722 60.8278 38.3521C60.9819 38.3052 61.0589 38.2013 61.0589 38.0405V32.7741C61.0589 32.6133 60.9819 32.5095 60.8278 32.4626C60.6871 32.4425 60.5397 32.4224 60.3856 32.4023C60.2382 32.3755 60.1645 32.3085 60.1645 32.2013C60.1645 32.1142 60.2114 32.0706 60.3052 32.0706C60.466 32.0706 60.7072 32.0773 61.0288 32.0907C61.3504 32.0974 61.5916 32.1008 61.7524 32.1008C61.9467 32.1008 62.2348 32.0974 62.6167 32.0907C62.9987 32.0773 63.2834 32.0706 63.471 32.0706C64.1276 32.0706 64.6737 32.2247 65.1092 32.5329C65.605 32.8813 65.853 33.3705 65.853 34.0003ZM64.2952 33.9299C64.2952 33.4944 64.1812 33.1326 63.9534 32.8445C63.7055 32.5296 63.3705 32.3721 62.9484 32.3721C62.6134 32.3721 62.4459 32.4626 62.4459 32.6435V35.4073C62.5665 35.4676 62.7373 35.4978 62.9585 35.4978C63.3873 35.4978 63.7223 35.3403 63.9635 35.0254C64.1846 34.7373 64.2952 34.3721 64.2952 33.9299Z" fill="#888A89"></path><path d="M69.9736 34.9953C69.9736 35.1762 69.9166 35.3269 69.8027 35.4475C69.6888 35.5681 69.5448 35.6284 69.3706 35.6284C69.2232 35.6284 69.0758 35.5413 68.9284 35.3671C68.781 35.1929 68.6771 35.1058 68.6168 35.1058C68.4292 35.1058 68.2215 35.2901 67.9937 35.6586C67.987 35.7993 67.9836 36.007 67.9836 36.2817V38.0305C67.9836 38.2047 68.0607 38.3152 68.2148 38.3621C68.3555 38.3755 68.4995 38.3923 68.6469 38.4124C68.8011 38.4325 68.8781 38.4995 68.8781 38.6134C68.8781 38.7005 68.8312 38.744 68.7374 38.744C68.5766 38.744 68.3354 38.7373 68.0138 38.7239C67.6922 38.7172 67.4476 38.7139 67.2801 38.7139C67.1528 38.7139 66.9585 38.7172 66.6972 38.7239C66.4359 38.7373 66.2382 38.744 66.1042 38.744C66.0037 38.744 65.9535 38.7005 65.9535 38.6134C65.9535 38.5062 66.0272 38.4425 66.1746 38.4224C66.322 38.3956 66.4694 38.3722 66.6168 38.3521C66.7709 38.3052 66.8479 38.2013 66.8479 38.0405V35.7289C66.8479 35.4877 66.8312 35.337 66.7977 35.2767C66.7441 35.1963 66.6101 35.1427 66.3957 35.1159C66.2349 35.0958 66.1545 35.0489 66.1545 34.9752C66.1545 34.9618 66.1645 34.9383 66.1846 34.9048C66.2047 34.8646 66.3823 34.7943 66.7173 34.6938C67.1059 34.5731 67.3069 34.5095 67.3203 34.5028C67.7357 34.3286 67.9501 34.2415 67.9635 34.2415C68.0037 34.2415 68.0238 34.2951 68.0238 34.4023C68.0238 34.4626 68.0205 34.553 68.0138 34.6736C68.0071 34.7943 68.0037 34.8847 68.0037 34.945V35.1661C68.4392 34.61 68.848 34.3319 69.2299 34.3319C69.4376 34.3319 69.6118 34.3922 69.7525 34.5128C69.8999 34.6334 69.9736 34.7943 69.9736 34.9953Z" fill="#888A89"></path><path d="M74.6472 38.131C74.5399 38.3186 74.3724 38.4861 74.1446 38.6335C73.9168 38.7742 73.6957 38.8445 73.4813 38.8445C73.0391 38.8445 72.7878 38.6167 72.7275 38.1611C72.1647 38.6167 71.6522 38.8445 71.1898 38.8445C70.9084 38.8445 70.6773 38.7675 70.4964 38.6134C70.2954 38.4526 70.1949 38.2348 70.1949 37.9601C70.1949 37.5112 70.5131 37.1125 71.1496 36.7641C71.6187 36.5162 72.1446 36.3387 72.7275 36.2315V35.6083C72.7275 35.3738 72.6538 35.1862 72.5064 35.0455C72.3657 34.9048 72.1781 34.8345 71.9436 34.8345C71.8096 34.8345 71.6589 34.8713 71.4913 34.945C71.2836 35.0321 71.1798 35.1326 71.1798 35.2465C71.1798 35.2934 71.2099 35.3671 71.2702 35.4676C71.3305 35.5614 71.3607 35.6418 71.3607 35.7088C71.3607 35.8428 71.3004 35.9534 71.1798 36.0405C71.0592 36.1276 70.9285 36.1711 70.7878 36.1711C70.6471 36.1711 70.5265 36.1276 70.426 36.0405C70.3255 35.9467 70.2753 35.8328 70.2753 35.6988C70.2753 35.3906 70.6103 35.079 71.2803 34.7641C71.8833 34.4894 72.3691 34.352 72.7376 34.352C73.1262 34.352 73.4177 34.4994 73.612 34.7943C73.7795 35.0422 73.8632 35.3705 73.8632 35.7792V37.8797C73.8632 38.0874 73.9336 38.1946 74.0743 38.2013C74.1681 38.2013 74.2719 38.1578 74.3858 38.0707C74.5064 37.9836 74.5701 37.94 74.5768 37.94C74.617 37.94 74.6438 37.9635 74.6572 38.0104C74.6706 38.0506 74.6673 38.0908 74.6472 38.131ZM72.7275 37.8395V36.5229C72.426 36.5832 72.1346 36.7105 71.8532 36.9048C71.5047 37.1393 71.3305 37.3839 71.3305 37.6385C71.3305 37.7993 71.3741 37.9367 71.4612 38.0506C71.555 38.1846 71.6756 38.2516 71.823 38.2516C72.0039 38.2516 72.3054 38.1142 72.7275 37.8395Z" fill="#888A89"></path><path d="M78.9398 35.2767C78.9398 35.4241 78.8862 35.5447 78.779 35.6385C78.6785 35.7256 78.5546 35.7691 78.4072 35.7691C78.1861 35.7691 78.0152 35.672 77.8946 35.4777C77.8142 35.2968 77.7304 35.1159 77.6433 34.935C77.5361 34.7407 77.3854 34.6435 77.1911 34.6435C76.8159 34.6435 76.5277 34.8412 76.3267 35.2365C76.1726 35.5514 76.0956 35.9165 76.0956 36.332C76.0956 36.8278 76.2061 37.2465 76.4272 37.5882C76.6818 37.9836 77.0437 38.1812 77.5127 38.1812C77.8745 38.1812 78.2799 37.9836 78.7288 37.5882L78.9298 37.7491C78.4675 38.4794 77.8276 38.8445 77.0102 38.8445C76.3736 38.8445 75.8577 38.6402 75.4624 38.2315C75.0671 37.8228 74.8694 37.3035 74.8694 36.6737C74.8694 35.9902 75.1039 35.4341 75.573 35.0053C76.0487 34.5698 76.6282 34.352 77.3117 34.352C77.6668 34.352 78.0051 34.419 78.3268 34.553C78.7355 34.7273 78.9398 34.9685 78.9398 35.2767Z" fill="#888A89"></path><path d="M82.313 38.2315C82.313 38.4191 82.1221 38.5732 81.7402 38.6938C81.4387 38.7943 81.1707 38.8445 80.9361 38.8445C80.5676 38.8445 80.2862 38.7407 80.0919 38.533C79.8976 38.3186 79.8005 38.0271 79.8005 37.6586V34.9752C79.4521 34.9752 79.3281 34.9785 79.4286 34.9852C79.2276 34.9718 79.1271 34.9283 79.1271 34.8546C79.1271 34.801 79.1673 34.7541 79.2477 34.7139C79.7368 34.3922 80.0048 34.2147 80.0517 34.1812C80.3197 33.9869 80.5542 33.7658 80.7552 33.5179C80.8021 33.4509 80.839 33.4174 80.8658 33.4174C80.9127 33.4174 80.9361 33.5011 80.9361 33.6686V34.5028C81.3516 34.4894 81.6665 34.4827 81.8809 34.4827C82.0685 34.4827 82.1623 34.5765 82.1623 34.7641C82.1623 34.8981 82.0986 34.9651 81.9713 34.9651H80.9462V37.5279C80.9462 38.0439 81.1506 38.3018 81.5593 38.3018C81.6866 38.3018 81.8306 38.2717 81.9914 38.2114C82.1522 38.1511 82.2326 38.1209 82.2326 38.1209C82.2862 38.1209 82.313 38.1578 82.313 38.2315Z" fill="#888A89"></path><path d="M84.2201 32.4827C84.2201 32.6636 84.1531 32.821 84.0191 32.955C83.8918 33.0823 83.7377 33.146 83.5568 33.146C83.3759 33.146 83.2184 33.0823 83.0844 32.955C82.9571 32.821 82.8935 32.6636 82.8935 32.4827C82.8935 32.3018 82.9571 32.1477 83.0844 32.0204C83.2184 31.8864 83.3759 31.8194 83.5568 31.8194C83.7377 31.8194 83.8918 31.8864 84.0191 32.0204C84.1531 32.1477 84.2201 32.3018 84.2201 32.4827ZM84.9236 38.5531C84.9236 38.6804 84.8365 38.744 84.6623 38.744C84.535 38.744 84.3441 38.7373 84.0894 38.7239C83.8348 38.7172 83.6405 38.7139 83.5065 38.7139C83.4127 38.7139 83.2687 38.7172 83.0744 38.7239C82.8801 38.7373 82.7326 38.744 82.6321 38.744C82.4512 38.744 82.3608 38.6804 82.3608 38.5531C82.3608 38.4727 82.478 38.4157 82.7125 38.3822C82.9538 38.3487 83.0744 38.2348 83.0744 38.0405V35.7289C83.0744 35.4877 83.0576 35.337 83.0241 35.2767C82.9705 35.1963 82.8365 35.1427 82.6221 35.1159C82.4613 35.0958 82.3809 35.0489 82.3809 34.9752C82.3809 34.9618 82.3909 34.9383 82.411 34.9048C82.4311 34.8646 82.6087 34.7943 82.9437 34.6938C83.3457 34.5664 83.5467 34.5028 83.5467 34.5028C83.9822 34.3286 84.1966 34.2415 84.1899 34.2415C84.2301 34.2415 84.2502 34.2984 84.2502 34.4123C84.2502 34.8144 84.2435 35.4174 84.2301 36.2214C84.2167 37.0254 84.21 37.6284 84.21 38.0305C84.21 38.2114 84.2703 38.3253 84.391 38.3722C84.4245 38.3789 84.5417 38.3923 84.7427 38.4124C84.8633 38.4191 84.9236 38.466 84.9236 38.5531Z" fill="#888A89"></path><path d="M89.234 35.2767C89.234 35.4241 89.1804 35.5447 89.0732 35.6385C88.9726 35.7256 88.8487 35.7691 88.7013 35.7691C88.4802 35.7691 88.3093 35.672 88.1887 35.4777C88.1083 35.2968 88.0246 35.1159 87.9375 34.935C87.8303 34.7407 87.6795 34.6435 87.4852 34.6435C87.11 34.6435 86.8219 34.8412 86.6209 35.2365C86.4668 35.5514 86.3897 35.9165 86.3897 36.332C86.3897 36.8278 86.5003 37.2465 86.7214 37.5882C86.976 37.9836 87.3378 38.1812 87.8068 38.1812C88.1686 38.1812 88.574 37.9836 89.0229 37.5882L89.2239 37.7491C88.7616 38.4794 88.1217 38.8445 87.3043 38.8445C86.6678 38.8445 86.1519 38.6402 85.7565 38.2315C85.3612 37.8228 85.1636 37.3035 85.1636 36.6737C85.1636 35.9902 85.3981 35.4341 85.8671 35.0053C86.3428 34.5698 86.9224 34.352 87.6058 34.352C87.9609 34.352 88.2993 34.419 88.6209 34.553C89.0296 34.7273 89.234 34.9685 89.234 35.2767Z" fill="#888A89"></path><path d="M93.763 37.6485C93.6089 38.0171 93.3442 38.3085 92.969 38.5229C92.6005 38.7373 92.2052 38.8445 91.7831 38.8445C91.1398 38.8445 90.6239 38.6335 90.2353 38.2114C89.8467 37.7893 89.6524 37.2566 89.6524 36.6134C89.6524 35.9567 89.8601 35.4174 90.2755 34.9953C90.6909 34.5664 91.2269 34.352 91.8836 34.352C92.3727 34.352 92.8015 34.5128 93.17 34.8345C93.5653 35.1695 93.763 35.5782 93.763 36.0606C93.763 36.1812 93.3409 36.2415 92.4966 36.2415H90.8283C90.8283 36.7641 90.9455 37.1963 91.18 37.538C91.4547 37.94 91.8367 38.141 92.3258 38.141C92.7278 38.141 93.1365 37.9266 93.5519 37.4978L93.763 37.6485ZM92.5167 35.6586C92.5167 35.3839 92.4564 35.1561 92.3358 34.9752C92.1884 34.7608 91.9841 34.6535 91.7228 34.6535C91.2135 34.6535 90.9221 35.0489 90.8484 35.8395H92.165C92.3995 35.8395 92.5167 35.7792 92.5167 35.6586Z" fill="#888A89"></path><path d="M102.879 34.6133C102.879 34.6602 102.815 34.7071 102.688 34.7541C102.607 34.7742 102.524 34.7976 102.436 34.8244C102.276 34.8914 102.115 35.0422 101.954 35.2767C101.478 35.9869 101.08 36.5363 100.758 36.9249C101.24 37.6351 101.673 37.9903 102.055 37.9903C102.235 37.9903 102.413 37.9199 102.587 37.7792L102.788 37.9601C102.433 38.5631 101.971 38.8646 101.401 38.8646C100.905 38.8646 100.436 38.5296 99.9943 37.8596C99.351 38.5028 98.6978 38.8244 98.0344 38.8244C97.5185 38.8244 97.0696 38.6502 96.6877 38.3018C96.3058 37.9534 96.1148 37.5246 96.1148 37.0154C96.1148 36.2516 96.614 35.5983 97.6123 35.0556C97.351 34.7943 97.1835 34.6033 97.1098 34.4827C96.9825 34.2817 96.9188 34.0405 96.9188 33.7591C96.9188 33.3504 97.0864 33.0019 97.4214 32.7138C97.743 32.4458 98.1115 32.3118 98.5269 32.3118C98.9289 32.3118 99.274 32.4056 99.5621 32.5932C99.9038 32.8076 100.075 33.1024 100.075 33.4777C100.075 33.7725 99.9373 34.0237 99.6626 34.2314C99.5956 34.285 99.3343 34.4358 98.8787 34.6837C98.9926 34.7976 99.1634 34.9752 99.3912 35.2164C99.8469 35.7055 100.229 36.1879 100.537 36.6636C100.698 36.4693 100.916 36.1778 101.19 35.7892C101.519 35.3068 101.683 35.0187 101.683 34.9249C101.683 34.8512 101.592 34.801 101.411 34.7742C101.23 34.7474 101.14 34.6937 101.14 34.6133C101.14 34.5195 101.177 34.4726 101.251 34.4726C101.338 34.4726 101.462 34.4793 101.622 34.4927C101.79 34.4994 101.914 34.5028 101.994 34.5028C102.081 34.5028 102.209 34.4994 102.376 34.4927C102.544 34.4793 102.668 34.4726 102.748 34.4726C102.835 34.4726 102.879 34.5195 102.879 34.6133ZM99.2505 33.548C99.2505 33.3269 99.1869 33.1158 99.0596 32.9148C98.9323 32.7071 98.7648 32.6033 98.5571 32.6033C98.3829 32.6033 98.2287 32.6636 98.0947 32.7842C97.9607 32.8981 97.8937 33.0421 97.8937 33.2164C97.8937 33.4844 97.9708 33.7222 98.1249 33.9299C98.2187 34.0639 98.3996 34.2381 98.6676 34.4525C99.0562 34.2247 99.2505 33.9232 99.2505 33.548ZM99.7832 37.5581C99.2673 36.8345 98.6207 36.0807 97.8435 35.2968C97.4616 35.5916 97.2706 35.9768 97.2706 36.4526C97.2706 36.8345 97.4214 37.1896 97.7229 37.5179C98.0311 37.8462 98.3762 38.0104 98.7581 38.0104C99.1869 38.0104 99.5286 37.8596 99.7832 37.5581Z" fill="#888A89"></path><path d="M108.255 38.6033C108.255 38.6971 108.208 38.744 108.114 38.744C107.953 38.744 107.712 38.7373 107.39 38.7239C107.069 38.7172 106.831 38.7139 106.677 38.7139C106.516 38.7139 106.275 38.7172 105.953 38.7239C105.631 38.7373 105.39 38.744 105.229 38.744C105.129 38.744 105.079 38.7005 105.079 38.6134C105.079 38.5062 105.152 38.4425 105.3 38.4224C105.447 38.3956 105.595 38.3722 105.742 38.3521C105.896 38.3052 105.973 38.2013 105.973 38.0405V32.7741C105.973 32.6133 105.896 32.5095 105.742 32.4626C105.601 32.4425 105.454 32.4224 105.3 32.4023C105.152 32.3755 105.079 32.3085 105.079 32.2013C105.079 32.1142 105.126 32.0706 105.219 32.0706C105.38 32.0706 105.621 32.0773 105.943 32.0907C106.265 32.0974 106.502 32.1008 106.657 32.1008C106.817 32.1008 107.059 32.0974 107.38 32.0907C107.702 32.0773 107.943 32.0706 108.104 32.0706C108.204 32.0706 108.255 32.1175 108.255 32.2113C108.255 32.3185 108.181 32.3822 108.033 32.4023C107.886 32.4224 107.739 32.4425 107.591 32.4626C107.437 32.5095 107.36 32.6133 107.36 32.7741V38.0305C107.36 38.2047 107.437 38.3152 107.591 38.3621C107.732 38.3755 107.876 38.3923 108.023 38.4124C108.177 38.4325 108.255 38.4961 108.255 38.6033Z" fill="#888A89"></path><path d="M116.488 38.543C116.488 38.677 116.391 38.744 116.197 38.744C116.083 38.744 115.912 38.7373 115.684 38.7239C115.457 38.7172 115.286 38.7139 115.172 38.7139C115.085 38.7139 114.954 38.7172 114.78 38.7239C114.606 38.7373 114.475 38.744 114.388 38.744C114.207 38.744 114.116 38.6837 114.116 38.5631C114.116 38.476 114.17 38.4258 114.277 38.4124C114.451 38.3923 114.549 38.3789 114.569 38.3722C114.676 38.3186 114.73 38.208 114.73 38.0405V36.2013C114.73 35.4107 114.478 35.0154 113.976 35.0154C113.721 35.0154 113.386 35.1427 112.971 35.3973C112.998 35.5112 113.011 35.6452 113.011 35.7993C113.011 36.0472 113.011 36.4191 113.011 36.9149C113.004 37.4107 113.001 37.7826 113.001 38.0305C113.001 38.2114 113.054 38.3253 113.162 38.3722C113.188 38.3856 113.289 38.399 113.463 38.4124C113.57 38.4191 113.624 38.4626 113.624 38.543C113.624 38.677 113.527 38.744 113.333 38.744C113.219 38.744 113.048 38.7373 112.82 38.7239C112.592 38.7172 112.421 38.7139 112.307 38.7139C112.22 38.7139 112.09 38.7172 111.915 38.7239C111.741 38.7373 111.611 38.744 111.523 38.744C111.343 38.744 111.252 38.6837 111.252 38.5631C111.252 38.476 111.306 38.4258 111.413 38.4124C111.587 38.3923 111.684 38.3789 111.704 38.3722C111.812 38.3186 111.865 38.208 111.865 38.0405V36.2013C111.865 35.4107 111.621 35.0154 111.132 35.0154C110.884 35.0154 110.552 35.1561 110.137 35.4375V38.0305C110.137 38.2114 110.19 38.3253 110.297 38.3722C110.324 38.3856 110.425 38.3956 110.599 38.4023C110.706 38.409 110.76 38.4559 110.76 38.543C110.76 38.677 110.662 38.744 110.468 38.744C110.354 38.744 110.183 38.7373 109.956 38.7239C109.728 38.7172 109.557 38.7139 109.443 38.7139C109.356 38.7139 109.225 38.7172 109.051 38.7239C108.877 38.7373 108.746 38.744 108.659 38.744C108.478 38.744 108.388 38.6837 108.388 38.5631C108.388 38.476 108.441 38.4291 108.549 38.4224C108.723 38.4023 108.82 38.3856 108.84 38.3722C108.947 38.3253 109.001 38.2147 109.001 38.0405V35.7189C109.001 35.4777 108.984 35.3269 108.951 35.2666C108.897 35.1929 108.763 35.1427 108.549 35.1159C108.388 35.0958 108.307 35.0489 108.307 34.9752C108.307 34.9618 108.317 34.9383 108.338 34.9048C108.358 34.8646 108.535 34.7943 108.87 34.6938C109.259 34.5731 109.46 34.5095 109.473 34.5028C109.882 34.3353 110.096 34.2515 110.116 34.2515C110.157 34.2515 110.177 34.2984 110.177 34.3922C110.177 34.4525 110.173 34.543 110.167 34.6636C110.16 34.7842 110.157 34.8747 110.157 34.935V35.0857C110.753 34.6301 111.266 34.4023 111.694 34.4023C112.297 34.4023 112.696 34.6435 112.89 35.1259C113.527 34.6435 114.086 34.4023 114.569 34.4023C114.991 34.4023 115.312 34.5296 115.534 34.7842C115.761 35.0321 115.875 35.3705 115.875 35.7993C115.875 36.0472 115.875 36.4191 115.875 36.9149C115.869 37.4107 115.865 37.7826 115.865 38.0305C115.865 38.2114 115.919 38.3253 116.026 38.3722C116.053 38.3856 116.153 38.399 116.328 38.4124C116.435 38.4191 116.488 38.4626 116.488 38.543Z" fill="#888A89"></path><path d="M121.602 36.4928C121.602 37.136 121.411 37.682 121.029 38.131C120.627 38.6067 120.111 38.8445 119.481 38.8445C119.066 38.8445 118.687 38.744 118.345 38.543V40.3219C118.345 40.5028 118.416 40.6134 118.556 40.6536C118.583 40.667 118.714 40.6804 118.948 40.6938C119.089 40.7072 119.159 40.7575 119.159 40.8446C119.159 40.9719 119.069 41.0355 118.888 41.0355C118.754 41.0355 118.546 41.0288 118.265 41.0154C117.99 41.0087 117.783 41.0054 117.642 41.0054C117.548 41.0054 117.404 41.0087 117.21 41.0154C117.015 41.0288 116.868 41.0355 116.767 41.0355C116.587 41.0355 116.496 40.9719 116.496 40.8446C116.496 40.7709 116.613 40.7173 116.848 40.6838C117.089 40.6502 117.21 40.533 117.21 40.332V35.7289C117.21 35.4877 117.193 35.337 117.159 35.2767C117.106 35.1963 116.972 35.1427 116.757 35.1159C116.597 35.0958 116.516 35.0455 116.516 34.9651C116.516 34.9584 116.526 34.935 116.546 34.8948C116.553 34.8814 116.834 34.7775 117.391 34.5832C117.953 34.3889 118.248 34.2917 118.275 34.2917C118.322 34.2917 118.355 34.3554 118.376 34.4827C118.376 34.4827 118.365 34.6636 118.345 35.0254C118.808 34.5765 119.277 34.352 119.752 34.352C120.315 34.352 120.771 34.5731 121.119 35.0154C121.441 35.4174 121.602 35.9098 121.602 36.4928ZM120.366 36.8847C120.366 36.4157 120.282 36.0036 120.114 35.6485C119.9 35.1795 119.585 34.945 119.17 34.945C118.848 34.945 118.573 35.1092 118.345 35.4375V37.7591C118.613 38.2683 118.935 38.5229 119.31 38.5229C119.665 38.5229 119.94 38.3253 120.134 37.93C120.288 37.6217 120.366 37.2733 120.366 36.8847Z" fill="#888A89"></path><path d="M124.482 38.5531C124.482 38.6804 124.395 38.744 124.221 38.744C124.094 38.744 123.903 38.7373 123.648 38.7239C123.394 38.7172 123.199 38.7139 123.065 38.7139C122.971 38.7139 122.827 38.7172 122.633 38.7239C122.439 38.7373 122.291 38.744 122.191 38.744C122.01 38.744 121.919 38.6804 121.919 38.5531C121.919 38.4727 122.037 38.4157 122.271 38.3822C122.512 38.3487 122.633 38.2348 122.633 38.0405V33.1158C122.633 32.8746 122.616 32.7239 122.583 32.6636C122.529 32.5832 122.395 32.5296 122.181 32.5028C122.02 32.4827 121.94 32.4358 121.94 32.3621C121.94 32.3487 121.95 32.3219 121.97 32.2817C121.983 32.2616 122.157 32.2113 122.492 32.1309C122.861 32.0505 123.065 32.0036 123.105 31.9902C123.541 31.816 123.755 31.7289 123.749 31.7289C123.789 31.7289 123.809 31.7792 123.809 31.8797C123.809 32.1008 123.802 32.4324 123.789 32.8746C123.775 33.3169 123.769 33.6485 123.769 33.8696V38.0305C123.769 38.198 123.829 38.3085 123.95 38.3621C123.976 38.3688 124.094 38.3822 124.301 38.4023C124.422 38.4157 124.482 38.466 124.482 38.5531Z" fill="#888A89"></path><path d="M129.175 38.131C129.067 38.3186 128.9 38.4861 128.672 38.6335C128.444 38.7742 128.223 38.8445 128.009 38.8445C127.566 38.8445 127.315 38.6167 127.255 38.1611C126.692 38.6167 126.18 38.8445 125.717 38.8445C125.436 38.8445 125.205 38.7675 125.024 38.6134C124.823 38.4526 124.722 38.2348 124.722 37.9601C124.722 37.5112 125.041 37.1125 125.677 36.7641C126.146 36.5162 126.672 36.3387 127.255 36.2315V35.6083C127.255 35.3738 127.181 35.1862 127.034 35.0455C126.893 34.9048 126.706 34.8345 126.471 34.8345C126.337 34.8345 126.186 34.8713 126.019 34.945C125.811 35.0321 125.707 35.1326 125.707 35.2465C125.707 35.2934 125.737 35.3671 125.798 35.4676C125.858 35.5614 125.888 35.6418 125.888 35.7088C125.888 35.8428 125.828 35.9534 125.707 36.0405C125.587 36.1276 125.456 36.1711 125.315 36.1711C125.175 36.1711 125.054 36.1276 124.953 36.0405C124.853 35.9467 124.803 35.8328 124.803 35.6988C124.803 35.3906 125.138 35.079 125.808 34.7641C126.411 34.4894 126.896 34.352 127.265 34.352C127.654 34.352 127.945 34.4994 128.139 34.7943C128.307 35.0422 128.391 35.3705 128.391 35.7792V37.8797C128.391 38.0874 128.461 38.1946 128.602 38.2013C128.695 38.2013 128.799 38.1578 128.913 38.0707C129.034 37.9836 129.097 37.94 129.104 37.94C129.144 37.94 129.171 37.9635 129.185 38.0104C129.198 38.0506 129.195 38.0908 129.175 38.131ZM127.255 37.8395V36.5229C126.953 36.5832 126.662 36.7105 126.381 36.9048C126.032 37.1393 125.858 37.3839 125.858 37.6385C125.858 37.7993 125.901 37.9367 125.989 38.0506C126.082 38.1846 126.203 38.2516 126.35 38.2516C126.531 38.2516 126.833 38.1142 127.255 37.8395Z" fill="#888A89"></path><path d="M134.452 38.543C134.452 38.677 134.355 38.744 134.161 38.744C134.047 38.744 133.876 38.7373 133.648 38.7239C133.42 38.7172 133.249 38.7139 133.136 38.7139C133.048 38.7139 132.918 38.7172 132.744 38.7239C132.569 38.7373 132.439 38.744 132.352 38.744C132.171 38.744 132.08 38.6837 132.08 38.5631C132.08 38.476 132.134 38.4258 132.241 38.4124C132.415 38.3923 132.512 38.3789 132.533 38.3722C132.64 38.3186 132.693 38.208 132.693 38.0405V36.2013C132.693 35.4107 132.449 35.0154 131.96 35.0154C131.712 35.0154 131.38 35.1561 130.965 35.4375V38.0305C130.965 38.2717 131.069 38.3923 131.276 38.3923C131.484 38.3923 131.588 38.4425 131.588 38.543C131.588 38.677 131.491 38.744 131.296 38.744C131.182 38.744 131.012 38.7373 130.784 38.7239C130.556 38.7172 130.385 38.7139 130.271 38.7139C130.184 38.7139 130.053 38.7172 129.879 38.7239C129.705 38.7373 129.574 38.744 129.487 38.744C129.306 38.744 129.216 38.6837 129.216 38.5631C129.216 38.476 129.27 38.4291 129.377 38.4224C129.551 38.4023 129.648 38.3856 129.668 38.3722C129.775 38.3253 129.829 38.2147 129.829 38.0405V35.7289C129.829 35.4877 129.812 35.337 129.779 35.2767C129.725 35.1963 129.591 35.1427 129.377 35.1159C129.216 35.0958 129.136 35.0489 129.136 34.9752C129.136 34.9618 129.146 34.9383 129.166 34.9048C129.186 34.8646 129.363 34.7943 129.698 34.6938C130.087 34.5731 130.288 34.5095 130.301 34.5028C130.717 34.3286 130.931 34.2415 130.945 34.2415C130.985 34.2415 131.005 34.2917 131.005 34.3922C131.005 34.4525 131.002 34.543 130.995 34.6636C130.988 34.7842 130.985 34.8747 130.985 34.935V35.0857C131.581 34.6301 132.097 34.4023 132.533 34.4023C132.955 34.4023 133.276 34.5296 133.497 34.7842C133.725 35.0321 133.839 35.3705 133.839 35.7993C133.839 36.0472 133.839 36.4191 133.839 36.9149C133.832 37.4107 133.829 37.7792 133.829 38.0204C133.829 38.2013 133.883 38.3152 133.99 38.3621C134.017 38.3755 134.117 38.3889 134.291 38.4023C134.399 38.409 134.452 38.4559 134.452 38.543Z" fill="#888A89"></path><path d="M137.626 38.2315C137.626 38.4191 137.435 38.5732 137.053 38.6938C136.751 38.7943 136.483 38.8445 136.249 38.8445C135.88 38.8445 135.599 38.7407 135.404 38.533C135.21 38.3186 135.113 38.0271 135.113 37.6586V34.9752C134.765 34.9752 134.641 34.9785 134.741 34.9852C134.54 34.9718 134.44 34.9283 134.44 34.8546C134.44 34.801 134.48 34.7541 134.56 34.7139C135.049 34.3922 135.317 34.2147 135.364 34.1812C135.632 33.9869 135.867 33.7658 136.068 33.5179C136.115 33.4509 136.152 33.4174 136.178 33.4174C136.225 33.4174 136.249 33.5011 136.249 33.6686V34.5028C136.664 34.4894 136.979 34.4827 137.193 34.4827C137.381 34.4827 137.475 34.5765 137.475 34.7641C137.475 34.8981 137.411 34.9651 137.284 34.9651H136.259V37.5279C136.259 38.0439 136.463 38.3018 136.872 38.3018C136.999 38.3018 137.143 38.2717 137.304 38.2114C137.465 38.1511 137.545 38.1209 137.545 38.1209C137.599 38.1209 137.626 38.1578 137.626 38.2315Z" fill="#888A89"></path><path d="M146.33 36.8546C146.33 37.0422 146.287 37.6586 146.2 38.7038C146.146 38.6837 146.066 38.6737 145.959 38.6737C145.872 38.6737 145.563 38.7038 145.034 38.7641C144.444 38.8311 143.945 38.8646 143.536 38.8646C142.525 38.8646 141.681 38.5464 141.004 37.9099C140.334 37.2733 139.999 36.4526 139.999 35.4475C139.999 34.4626 140.351 33.6318 141.054 32.955C141.758 32.2783 142.602 31.94 143.587 31.94C143.995 31.94 144.377 31.9768 144.732 32.0505C144.846 32.0706 145.208 32.1644 145.818 32.3319C145.965 32.1845 146.069 32.1108 146.129 32.1108C146.19 32.1108 146.23 32.2984 146.25 32.6736C146.263 32.9483 146.27 33.3202 146.27 33.7892C146.27 33.883 146.233 33.9299 146.16 33.9299C146.119 33.9299 146.083 33.9031 146.049 33.8495C145.727 33.28 145.456 32.9014 145.235 32.7138C144.913 32.4458 144.474 32.3118 143.918 32.3118C143.161 32.3118 142.568 32.6234 142.139 33.2465C141.771 33.7892 141.587 34.4592 141.587 35.2566C141.587 36.1075 141.768 36.8278 142.129 37.4174C142.565 38.1276 143.181 38.4827 143.979 38.4827C144.508 38.4827 144.954 38.3253 145.315 38.0104C145.583 37.7826 145.865 37.3973 146.16 36.8546C146.2 36.7809 146.24 36.744 146.28 36.744C146.314 36.744 146.33 36.7809 146.33 36.8546Z" fill="#888A89"></path><path d="M151.009 37.6485C150.855 38.0171 150.59 38.3085 150.215 38.5229C149.847 38.7373 149.451 38.8445 149.029 38.8445C148.386 38.8445 147.87 38.6335 147.481 38.2114C147.093 37.7893 146.898 37.2566 146.898 36.6134C146.898 35.9567 147.106 35.4174 147.522 34.9953C147.937 34.5664 148.473 34.352 149.13 34.352C149.619 34.352 150.048 34.5128 150.416 34.8345C150.811 35.1695 151.009 35.5782 151.009 36.0606C151.009 36.1812 150.587 36.2415 149.743 36.2415H148.074C148.074 36.7641 148.192 37.1963 148.426 37.538C148.701 37.94 149.083 38.141 149.572 38.141C149.974 38.141 150.383 37.9266 150.798 37.4978L151.009 37.6485ZM149.763 35.6586C149.763 35.3839 149.703 35.1561 149.582 34.9752C149.434 34.7608 149.23 34.6535 148.969 34.6535C148.46 34.6535 148.168 35.0489 148.094 35.8395H149.411C149.646 35.8395 149.763 35.7792 149.763 35.6586Z" fill="#888A89"></path><path d="M156.382 38.543C156.382 38.677 156.285 38.744 156.091 38.744C155.977 38.744 155.806 38.7373 155.578 38.7239C155.35 38.7172 155.18 38.7139 155.066 38.7139C154.979 38.7139 154.848 38.7172 154.674 38.7239C154.5 38.7373 154.369 38.744 154.282 38.744C154.101 38.744 154.01 38.6837 154.01 38.5631C154.01 38.476 154.064 38.4258 154.171 38.4124C154.345 38.3923 154.443 38.3789 154.463 38.3722C154.57 38.3186 154.623 38.208 154.623 38.0405V36.2013C154.623 35.4107 154.379 35.0154 153.89 35.0154C153.642 35.0154 153.31 35.1561 152.895 35.4375V38.0305C152.895 38.2717 152.999 38.3923 153.206 38.3923C153.414 38.3923 153.518 38.4425 153.518 38.543C153.518 38.677 153.421 38.744 153.226 38.744C153.113 38.744 152.942 38.7373 152.714 38.7239C152.486 38.7172 152.315 38.7139 152.201 38.7139C152.114 38.7139 151.984 38.7172 151.809 38.7239C151.635 38.7373 151.505 38.744 151.417 38.744C151.237 38.744 151.146 38.6837 151.146 38.5631C151.146 38.476 151.2 38.4291 151.307 38.4224C151.481 38.4023 151.578 38.3856 151.598 38.3722C151.706 38.3253 151.759 38.2147 151.759 38.0405V35.7289C151.759 35.4877 151.742 35.337 151.709 35.2767C151.655 35.1963 151.521 35.1427 151.307 35.1159C151.146 35.0958 151.066 35.0489 151.066 34.9752C151.066 34.9618 151.076 34.9383 151.096 34.9048C151.116 34.8646 151.293 34.7943 151.628 34.6938C152.017 34.5731 152.218 34.5095 152.231 34.5028C152.647 34.3286 152.861 34.2415 152.875 34.2415C152.915 34.2415 152.935 34.2917 152.935 34.3922C152.935 34.4525 152.932 34.543 152.925 34.6636C152.918 34.7842 152.915 34.8747 152.915 34.935V35.0857C153.511 34.6301 154.027 34.4023 154.463 34.4023C154.885 34.4023 155.206 34.5296 155.428 34.7842C155.655 35.0321 155.769 35.3705 155.769 35.7993C155.769 36.0472 155.769 36.4191 155.769 36.9149C155.763 37.4107 155.759 37.7792 155.759 38.0204C155.759 38.2013 155.813 38.3152 155.92 38.3621C155.947 38.3755 156.047 38.3889 156.221 38.4023C156.329 38.409 156.382 38.4559 156.382 38.543Z" fill="#888A89"></path><path d="M159.556 38.2315C159.556 38.4191 159.365 38.5732 158.983 38.6938C158.681 38.7943 158.413 38.8445 158.179 38.8445C157.81 38.8445 157.529 38.7407 157.335 38.533C157.14 38.3186 157.043 38.0271 157.043 37.6586V34.9752C156.695 34.9752 156.571 34.9785 156.671 34.9852C156.47 34.9718 156.37 34.9283 156.37 34.8546C156.37 34.801 156.41 34.7541 156.49 34.7139C156.98 34.3922 157.248 34.2147 157.294 34.1812C157.562 33.9869 157.797 33.7658 157.998 33.5179C158.045 33.4509 158.082 33.4174 158.109 33.4174C158.155 33.4174 158.179 33.5011 158.179 33.6686V34.5028C158.594 34.4894 158.909 34.4827 159.124 34.4827C159.311 34.4827 159.405 34.5765 159.405 34.7641C159.405 34.8981 159.341 34.9651 159.214 34.9651H158.189V37.5279C158.189 38.0439 158.393 38.3018 158.802 38.3018C158.929 38.3018 159.073 38.2717 159.234 38.2114C159.395 38.1511 159.475 38.1209 159.475 38.1209C159.529 38.1209 159.556 38.1578 159.556 38.2315Z" fill="#888A89"></path><path d="M163.865 37.6485C163.711 38.0171 163.446 38.3085 163.071 38.5229C162.702 38.7373 162.307 38.8445 161.885 38.8445C161.242 38.8445 160.726 38.6335 160.337 38.2114C159.949 37.7893 159.754 37.2566 159.754 36.6134C159.754 35.9567 159.962 35.4174 160.377 34.9953C160.793 34.5664 161.329 34.352 161.985 34.352C162.475 34.352 162.903 34.5128 163.272 34.8345C163.667 35.1695 163.865 35.5782 163.865 36.0606C163.865 36.1812 163.443 36.2415 162.599 36.2415H160.93C160.93 36.7641 161.047 37.1963 161.282 37.538C161.557 37.94 161.939 38.141 162.428 38.141C162.83 38.141 163.238 37.9266 163.654 37.4978L163.865 37.6485ZM162.619 35.6586C162.619 35.3839 162.558 35.1561 162.438 34.9752C162.29 34.7608 162.086 34.6535 161.825 34.6535C161.315 34.6535 161.024 35.0489 160.95 35.8395H162.267C162.501 35.8395 162.619 35.7792 162.619 35.6586Z" fill="#888A89"></path><path d="M167.841 34.9953C167.841 35.1762 167.784 35.3269 167.67 35.4475C167.556 35.5681 167.412 35.6284 167.238 35.6284C167.091 35.6284 166.943 35.5413 166.796 35.3671C166.648 35.1929 166.545 35.1058 166.484 35.1058C166.297 35.1058 166.089 35.2901 165.861 35.6586C165.854 35.7993 165.851 36.007 165.851 36.2817V38.0305C165.851 38.2047 165.928 38.3152 166.082 38.3621C166.223 38.3755 166.367 38.3923 166.514 38.4124C166.669 38.4325 166.746 38.4995 166.746 38.6134C166.746 38.7005 166.699 38.744 166.605 38.744C166.444 38.744 166.203 38.7373 165.881 38.7239C165.56 38.7172 165.315 38.7139 165.148 38.7139C165.02 38.7139 164.826 38.7172 164.565 38.7239C164.303 38.7373 164.106 38.744 163.972 38.744C163.871 38.744 163.821 38.7005 163.821 38.6134C163.821 38.5062 163.895 38.4425 164.042 38.4224C164.189 38.3956 164.337 38.3722 164.484 38.3521C164.638 38.3052 164.715 38.2013 164.715 38.0405V35.7289C164.715 35.4877 164.699 35.337 164.665 35.2767C164.612 35.1963 164.478 35.1427 164.263 35.1159C164.102 35.0958 164.022 35.0489 164.022 34.9752C164.022 34.9618 164.032 34.9383 164.052 34.9048C164.072 34.8646 164.25 34.7943 164.585 34.6938C164.973 34.5731 165.174 34.5095 165.188 34.5028C165.603 34.3286 165.818 34.2415 165.831 34.2415C165.871 34.2415 165.891 34.2951 165.891 34.4023C165.891 34.4626 165.888 34.553 165.881 34.6736C165.875 34.7943 165.871 34.8847 165.871 34.945V35.1661C166.307 34.61 166.715 34.3319 167.097 34.3319C167.305 34.3319 167.479 34.3922 167.62 34.5128C167.767 34.6334 167.841 34.7943 167.841 34.9953Z" fill="#888A89"></path><path d="M57.8773 11.303C57.8773 11.3566 57.8136 11.6414 57.6863 12.1573C57.5255 12.7737 57.4451 13.0886 57.4451 13.102C56.9962 13.102 56.3262 13.0987 55.435 13.092C54.5506 13.0853 53.8873 13.0819 53.4451 13.0819C53.2843 13.0819 53.0431 13.0853 52.7215 13.092C52.3998 13.1054 52.1586 13.1121 51.9978 13.1121C51.8973 13.1121 51.8471 13.0685 51.8471 12.9814C51.8471 12.8742 51.9208 12.8105 52.0682 12.7904C52.2156 12.7636 52.363 12.7402 52.5104 12.7201C52.6645 12.6732 52.7416 12.5693 52.7416 12.4085V7.14216C52.7416 6.98135 52.6645 6.8775 52.5104 6.8306C52.3697 6.8105 52.2223 6.7904 52.0682 6.7703C51.9208 6.7435 51.8471 6.67649 51.8471 6.56929C51.8471 6.48219 51.894 6.43864 51.9878 6.43864C52.1486 6.43864 52.3898 6.44534 52.7114 6.45874C53.033 6.46544 53.2709 6.46879 53.425 6.46879C53.5858 6.46879 53.827 6.46544 54.1486 6.45874C54.4702 6.44534 54.7114 6.43864 54.8722 6.43864C54.9727 6.43864 55.023 6.48554 55.023 6.57934C55.023 6.68654 54.9493 6.7502 54.8019 6.7703C54.6545 6.7904 54.5071 6.8105 54.3597 6.8306C54.2056 6.8775 54.1285 6.98135 54.1285 7.14216V12.3985C54.1285 12.6263 54.4702 12.7402 55.1536 12.7402C56.4066 12.7402 57.2441 12.2578 57.6662 11.2929C57.6997 11.2192 57.7399 11.1824 57.7868 11.1824C57.8471 11.1824 57.8773 11.2226 57.8773 11.303Z" fill="#888A89"></path><path d="M62.7453 10.9814C62.7453 11.6447 62.5343 12.1841 62.1122 12.5995C61.6967 13.0082 61.1574 13.2126 60.4941 13.2126C59.8307 13.2126 59.2847 13.0082 58.8559 12.5995C58.427 12.1908 58.2126 11.6548 58.2126 10.9914C58.2126 10.3281 58.4237 9.7854 58.8458 9.36328C59.2746 8.94117 59.8207 8.73011 60.484 8.73011C61.1406 8.73011 61.68 8.94117 62.1021 9.36328C62.5309 9.7854 62.7453 10.3248 62.7453 10.9814ZM61.479 10.9512C61.479 9.67819 61.1406 9.04167 60.4639 9.04167C59.8073 9.04167 59.479 9.65809 59.479 10.8909C59.479 11.4538 59.5259 11.8792 59.6197 12.1673C59.7805 12.6631 60.0786 12.9111 60.5142 12.9111C61.1574 12.9111 61.479 12.2578 61.479 10.9512Z" fill="#888A89"></path><path d="M70.0869 8.98137C70.0869 9.06847 70.0099 9.12878 69.8558 9.16228C69.6749 9.19578 69.5476 9.29628 69.4739 9.46379L67.7553 13.2528C67.7218 13.3265 67.6883 13.36 67.6548 13.3533C67.561 13.3533 67.4236 13.1422 67.2427 12.7201L66.4889 10.9713C66.2678 11.4806 65.9194 12.241 65.4437 13.2528C65.4102 13.3265 65.3767 13.36 65.3432 13.3533C65.2494 13.3533 65.112 13.1422 64.9311 12.7201L63.5542 9.46379C63.4805 9.28958 63.3566 9.18908 63.1824 9.16228C63.0149 9.12878 62.9311 9.07182 62.9311 8.99142C62.9311 8.89092 62.9747 8.84067 63.0618 8.84067C63.1824 8.84067 63.3566 8.84737 63.5844 8.86077C63.8189 8.86747 63.9931 8.87082 64.107 8.87082C64.2008 8.87082 64.3382 8.86747 64.5191 8.86077C64.7 8.84737 64.834 8.84067 64.9211 8.84067C65.0618 8.84067 65.1321 8.89427 65.1321 9.00147C65.1321 9.09527 65.0517 9.14553 64.8909 9.15223C64.7301 9.15893 64.6497 9.22258 64.6497 9.34318C64.6497 9.36328 64.7201 9.54754 64.8608 9.89595L65.7251 12.0367L66.3382 10.5894L65.8558 9.47384C65.7754 9.29293 65.6614 9.18573 65.514 9.15223C65.4001 9.12542 65.3432 9.07182 65.3432 8.99142C65.3432 8.89092 65.3834 8.84067 65.4638 8.84067C65.571 8.84067 65.7318 8.84737 65.9462 8.86077C66.1606 8.86747 66.3181 8.87082 66.4186 8.87082C66.5124 8.87082 66.6497 8.86747 66.8306 8.86077C67.0115 8.84737 67.1455 8.84067 67.2326 8.84067C67.3734 8.84067 67.4437 8.89427 67.4437 9.00147C67.4437 9.09527 67.3633 9.14553 67.2025 9.15223C67.0417 9.15893 66.9613 9.22258 66.9613 9.34318C66.9613 9.36328 67.0316 9.54754 67.1723 9.89595L68.0367 12.0367L68.8206 10.1673C69.0082 9.71839 69.102 9.45039 69.102 9.36328C69.102 9.22258 69.0149 9.14888 68.8407 9.14218C68.6732 9.13548 68.5894 9.08857 68.5894 9.00147C68.5894 8.89427 68.6564 8.84067 68.7905 8.84067C68.8508 8.84067 68.9379 8.84737 69.0518 8.86077C69.1657 8.86747 69.2494 8.87082 69.303 8.87082C69.3767 8.87082 69.4873 8.86747 69.6347 8.86077C69.7821 8.84737 69.8926 8.84067 69.9663 8.84067C70.0467 8.84067 70.0869 8.88757 70.0869 8.98137Z" fill="#888A89"></path><path d="M74.4411 12.0166C74.287 12.3851 74.0223 12.6765 73.6471 12.891C73.2786 13.1054 72.8833 13.2126 72.4612 13.2126C71.818 13.2126 71.302 13.0015 70.9134 12.5794C70.5248 12.1573 70.3305 11.6246 70.3305 10.9814C70.3305 10.3248 70.5382 9.7854 70.9536 9.36328C71.369 8.93447 71.9051 8.72006 72.5617 8.72006C73.0508 8.72006 73.4796 8.88087 73.8481 9.20248C74.2434 9.53749 74.4411 9.9462 74.4411 10.4286C74.4411 10.5492 74.019 10.6095 73.1748 10.6095H71.5064C71.5064 11.1321 71.6237 11.5643 71.8582 11.906C72.1329 12.308 72.5148 12.509 73.0039 12.509C73.4059 12.509 73.8146 12.2946 74.23 11.8658L74.4411 12.0166ZM73.1949 10.0266C73.1949 9.7519 73.1346 9.52409 73.0139 9.34318C72.8665 9.12878 72.6622 9.02157 72.4009 9.02157C71.8917 9.02157 71.6002 9.41689 71.5265 10.2075H72.8431C73.0776 10.2075 73.1949 10.1472 73.1949 10.0266Z" fill="#888A89"></path><path d="M77.2012 12.9211C77.2012 13.0484 77.1141 13.1121 76.9399 13.1121C76.8126 13.1121 76.6217 13.1054 76.3671 13.092C76.1125 13.0853 75.9182 13.0819 75.7841 13.0819C75.6903 13.0819 75.5463 13.0853 75.352 13.092C75.1577 13.1054 75.0103 13.1121 74.9098 13.1121C74.7289 13.1121 74.6384 13.0484 74.6384 12.9211C74.6384 12.8407 74.7557 12.7837 74.9902 12.7502C75.2314 12.7167 75.352 12.6028 75.352 12.4085V7.48387C75.352 7.24266 75.3352 7.09191 75.3017 7.0316C75.2481 6.9512 75.1141 6.8976 74.8997 6.8708C74.7389 6.8507 74.6585 6.8038 74.6585 6.7301C74.6585 6.71669 74.6686 6.68989 74.6887 6.64969C74.7021 6.62959 74.8763 6.57934 75.2113 6.49894C75.5798 6.41853 75.7841 6.37163 75.8243 6.35823C76.2599 6.18403 76.4743 6.09692 76.4676 6.09692C76.5078 6.09692 76.5279 6.14718 76.5279 6.24768C76.5279 6.46879 76.5212 6.80045 76.5078 7.24266C76.4944 7.68488 76.4877 8.01654 76.4877 8.23765V12.3985C76.4877 12.566 76.548 12.6765 76.6686 12.7301C76.6954 12.7368 76.8126 12.7502 77.0203 12.7703C77.1409 12.7837 77.2012 12.834 77.2012 12.9211Z" fill="#888A89"></path><path d="M79.8834 12.9211C79.8834 13.0484 79.7963 13.1121 79.6221 13.1121C79.4948 13.1121 79.3039 13.1054 79.0493 13.092C78.7946 13.0853 78.6003 13.0819 78.4663 13.0819C78.3725 13.0819 78.2285 13.0853 78.0342 13.092C77.8399 13.1054 77.6925 13.1121 77.592 13.1121C77.411 13.1121 77.3206 13.0484 77.3206 12.9211C77.3206 12.8407 77.4378 12.7837 77.6724 12.7502C77.9136 12.7167 78.0342 12.6028 78.0342 12.4085V7.48387C78.0342 7.24266 78.0174 7.09191 77.9839 7.0316C77.9303 6.9512 77.7963 6.8976 77.5819 6.8708C77.4211 6.8507 77.3407 6.8038 77.3407 6.7301C77.3407 6.71669 77.3507 6.68989 77.3708 6.64969C77.3842 6.62959 77.5585 6.57934 77.8935 6.49894C78.262 6.41853 78.4663 6.37163 78.5065 6.35823C78.942 6.18403 79.1565 6.09692 79.1498 6.09692C79.19 6.09692 79.2101 6.14718 79.2101 6.24768C79.2101 6.46879 79.2034 6.80045 79.19 7.24266C79.1766 7.68488 79.1699 8.01654 79.1699 8.23765V12.3985C79.1699 12.566 79.2302 12.6765 79.3508 12.7301C79.3776 12.7368 79.4948 12.7502 79.7025 12.7703C79.8231 12.7837 79.8834 12.834 79.8834 12.9211Z" fill="#888A89"></path></svg>